<svg xmlns="http://www.w3.org/2000/svg" width="256" height="256" viewBox="0 0 256 256">
  <defs>
    <linearGradient id="g" x1="0" x2="0" y1="0" y2="1">
      <stop offset="0" stop-color="#3b3f4a"/>
      <stop offset="1" stop-color="#1f2430"/>
    </linearGradient>
  </defs>
  <!-- Bomb body -->
  <circle cx="128" cy="150" r="78" fill="url(#g)"/>
  <circle cx="108" cy="132" r="18" fill="#555a66" opacity="0.35"/>

  <!-- Fuse base -->
  <rect x="140" y="62" width="26" height="22" rx="6" fill="#2a2f3a"/>
  <!-- Neck -->
  <rect x="118" y="78" width="68" height="14" rx="7" fill="#2a2f3a" transform="rotate(-20 152 85)"/>
  <!-- Fuse cord -->
  <path d="M 180 70 C 210 52, 226 68, 236 44" fill="none" stroke="#5b3a1f" stroke-width="6" stroke-linecap="round"/>
  <!-- Spark -->
  <g transform="translate(236,44)">
    <circle r="7" fill="#ffcc00"/>
    <g stroke="#ff8a00" stroke-width="3">
      <path d="M0,-16 L0,-26"/>
      <path d="M0,16 L0,26"/>
      <path d="M-16,0 L-26,0"/>
      <path d="M16,0 L26,0"/>
      <path d="M-12,-12 L-20,-20"/>
      <path d="M12,12 L20,20"/>
      <path d="M12,-12 L20,-20"/>
      <path d="M-12,12 L-20,20"/>
    </g>
  </g>
</svg>
